<?xml version="1.0" encoding="UTF-8" standalone="no"?><!DOCTYPE svg PUBLIC "-//W3C//DTD SVG 1.1//EN" "http://www.w3.org/Graphics/SVG/1.1/DTD/svg11.dtd"><svg width="100%" height="100%" viewBox="0 0 150 150" version="1.1" xmlns="http://www.w3.org/2000/svg" xmlns:xlink="http://www.w3.org/1999/xlink" xml:space="preserve" xmlns:serif="http://www.serif.com/" style="fill-rule:evenodd;clip-rule:evenodd;stroke-linejoin:round;stroke-miterlimit:2;"><rect x="0" y="0" width="150" height="150" style="fill:none;"/><path d="M139,47c-0,-11.038 -7.169,-23.585 -16,-28l-32,-16c-8.831,-4.415 -16,0.962 -16,12l-0,56c-0,11.038 7.169,23.585 16,28l32,16c8.831,4.415 16,-0.962 16,-12l-0,-56Z" style="fill:#4e4e4e;"/><path d="M107,63c-0,-11.038 -7.169,-23.585 -16,-28l-32,-16c-8.831,-4.415 -16,0.962 -16,12l-0,56c-0,11.038 7.169,23.585 16,28l32,16c8.831,4.415 16,-0.962 16,-12l-0,-56Z" style="fill:#808080;"/><path d="M75,79c-0,-11.038 -7.169,-23.585 -16,-28l-32,-16c-8.831,-4.415 -16,0.962 -16,12l-0,56c-0,11.038 7.169,23.585 16,28l32,16c8.831,4.415 16,-0.962 16,-12l-0,-56Z" style="fill:#b3b3b3;"/></svg>